<mxfile host="app.diagrams.net" modified="2023-07-15T07:28:21.679Z" agent="Mozilla/5.0 (Windows NT 10.0; Win64; x64) AppleWebKit/537.36 (KHTML, like Gecko) Chrome/114.0.0.0 Safari/537.36" etag="p-dg6KM6FJdNopNAelKc" version="21.5.2" type="device">
  <diagram name="PÃ¡gina-1" id="xLW5C6LHz3pSq6a5KIRc">
    <mxGraphModel dx="819" dy="450" grid="1" gridSize="10" guides="1" tooltips="1" connect="1" arrows="1" fold="1" page="1" pageScale="1" pageWidth="827" pageHeight="1169" math="0" shadow="0">
      <root>
        <mxCell id="0" />
        <mxCell id="1" parent="0" />
        <mxCell id="R5chP_YPjV_zsuHj-nTc-25" style="edgeStyle=orthogonalEdgeStyle;rounded=0;orthogonalLoop=1;jettySize=auto;html=1;exitX=1.006;exitY=0.192;exitDx=0;exitDy=0;entryX=0;entryY=0;entryDx=0;entryDy=0;entryPerimeter=0;exitPerimeter=0;fillColor=#1ba1e2;strokeColor=#006EAF;" edge="1" parent="1" source="R5chP_YPjV_zsuHj-nTc-2" target="R5chP_YPjV_zsuHj-nTc-5">
          <mxGeometry relative="1" as="geometry">
            <Array as="points">
              <mxPoint x="212" y="230" />
              <mxPoint x="270" y="230" />
            </Array>
          </mxGeometry>
        </mxCell>
        <mxCell id="R5chP_YPjV_zsuHj-nTc-37" style="edgeStyle=orthogonalEdgeStyle;rounded=0;orthogonalLoop=1;jettySize=auto;html=1;exitX=-0.009;exitY=0.808;exitDx=0;exitDy=0;entryX=0.5;entryY=1;entryDx=0;entryDy=0;exitPerimeter=0;fillColor=#008a00;strokeColor=#005700;" edge="1" parent="1" source="R5chP_YPjV_zsuHj-nTc-2" target="R5chP_YPjV_zsuHj-nTc-4">
          <mxGeometry relative="1" as="geometry">
            <Array as="points">
              <mxPoint x="128" y="360" />
              <mxPoint x="65" y="360" />
            </Array>
          </mxGeometry>
        </mxCell>
        <mxCell id="R5chP_YPjV_zsuHj-nTc-2" value="A&lt;br&gt;P&lt;br&gt;I&lt;br&gt;&lt;br&gt;M&lt;br&gt;A&lt;br&gt;N&lt;br&gt;A&lt;br&gt;G&lt;br&gt;E&lt;br&gt;R" style="rounded=0;whiteSpace=wrap;html=1;" vertex="1" parent="1">
          <mxGeometry x="160" y="190" width="50" height="210" as="geometry" />
        </mxCell>
        <mxCell id="R5chP_YPjV_zsuHj-nTc-35" style="edgeStyle=orthogonalEdgeStyle;rounded=0;orthogonalLoop=1;jettySize=auto;html=1;exitX=0.5;exitY=0;exitDx=0;exitDy=0;entryX=-0.01;entryY=0.191;entryDx=0;entryDy=0;entryPerimeter=0;fillColor=#1ba1e2;strokeColor=#006EAF;" edge="1" parent="1" source="R5chP_YPjV_zsuHj-nTc-4" target="R5chP_YPjV_zsuHj-nTc-2">
          <mxGeometry relative="1" as="geometry" />
        </mxCell>
        <mxCell id="R5chP_YPjV_zsuHj-nTc-4" value="Client" style="rounded=1;whiteSpace=wrap;html=1;" vertex="1" parent="1">
          <mxGeometry x="35" y="270" width="60" height="50" as="geometry" />
        </mxCell>
        <mxCell id="R5chP_YPjV_zsuHj-nTc-13" style="edgeStyle=orthogonalEdgeStyle;rounded=0;orthogonalLoop=1;jettySize=auto;html=1;exitX=0;exitY=0;exitDx=30;exitDy=0;exitPerimeter=0;entryX=0.5;entryY=0;entryDx=0;entryDy=0;fillColor=#1ba1e2;strokeColor=#006EAF;" edge="1" parent="1" source="R5chP_YPjV_zsuHj-nTc-5" target="R5chP_YPjV_zsuHj-nTc-8">
          <mxGeometry relative="1" as="geometry">
            <Array as="points">
              <mxPoint x="300" y="230" />
              <mxPoint x="450" y="230" />
            </Array>
          </mxGeometry>
        </mxCell>
        <mxCell id="R5chP_YPjV_zsuHj-nTc-22" style="edgeStyle=orthogonalEdgeStyle;rounded=0;orthogonalLoop=1;jettySize=auto;html=1;exitX=0;exitY=1;exitDx=0;exitDy=0;exitPerimeter=0;entryX=1.025;entryY=0.812;entryDx=0;entryDy=0;entryPerimeter=0;fillColor=#008a00;strokeColor=#005700;" edge="1" parent="1" source="R5chP_YPjV_zsuHj-nTc-5" target="R5chP_YPjV_zsuHj-nTc-2">
          <mxGeometry relative="1" as="geometry" />
        </mxCell>
        <mxCell id="R5chP_YPjV_zsuHj-nTc-5" value="yaml" style="shape=note;whiteSpace=wrap;html=1;backgroundOutline=1;darkOpacity=0.05;" vertex="1" parent="1">
          <mxGeometry x="270" y="245" width="60" height="80" as="geometry" />
        </mxCell>
        <mxCell id="R5chP_YPjV_zsuHj-nTc-14" style="edgeStyle=orthogonalEdgeStyle;rounded=0;orthogonalLoop=1;jettySize=auto;html=1;exitX=0.5;exitY=1;exitDx=0;exitDy=0;entryX=0.5;entryY=1;entryDx=0;entryDy=0;entryPerimeter=0;fillColor=#008a00;strokeColor=#005700;" edge="1" parent="1" source="R5chP_YPjV_zsuHj-nTc-8" target="R5chP_YPjV_zsuHj-nTc-5">
          <mxGeometry relative="1" as="geometry">
            <Array as="points">
              <mxPoint x="450" y="360" />
              <mxPoint x="300" y="360" />
            </Array>
          </mxGeometry>
        </mxCell>
        <mxCell id="R5chP_YPjV_zsuHj-nTc-17" style="edgeStyle=orthogonalEdgeStyle;rounded=0;orthogonalLoop=1;jettySize=auto;html=1;entryX=0.5;entryY=0;entryDx=0;entryDy=0;entryPerimeter=0;fillColor=#1ba1e2;strokeColor=#006EAF;exitX=0.75;exitY=0;exitDx=0;exitDy=0;" edge="1" parent="1" source="R5chP_YPjV_zsuHj-nTc-8" target="R5chP_YPjV_zsuHj-nTc-15">
          <mxGeometry relative="1" as="geometry">
            <mxPoint x="480" y="260" as="sourcePoint" />
            <Array as="points">
              <mxPoint x="480" y="230" />
              <mxPoint x="620" y="230" />
            </Array>
          </mxGeometry>
        </mxCell>
        <mxCell id="R5chP_YPjV_zsuHj-nTc-8" value="mock-server" style="rounded=0;whiteSpace=wrap;html=1;" vertex="1" parent="1">
          <mxGeometry x="390" y="265" width="120" height="60" as="geometry" />
        </mxCell>
        <mxCell id="R5chP_YPjV_zsuHj-nTc-18" style="edgeStyle=orthogonalEdgeStyle;rounded=0;orthogonalLoop=1;jettySize=auto;html=1;exitX=0.5;exitY=1;exitDx=0;exitDy=0;exitPerimeter=0;entryX=0.75;entryY=1;entryDx=0;entryDy=0;fillColor=#008a00;strokeColor=#005700;" edge="1" parent="1" source="R5chP_YPjV_zsuHj-nTc-15" target="R5chP_YPjV_zsuHj-nTc-8">
          <mxGeometry relative="1" as="geometry">
            <Array as="points">
              <mxPoint x="620" y="360" />
              <mxPoint x="480" y="360" />
            </Array>
          </mxGeometry>
        </mxCell>
        <mxCell id="R5chP_YPjV_zsuHj-nTc-15" value="data" style="shape=cylinder3;whiteSpace=wrap;html=1;boundedLbl=1;backgroundOutline=1;size=15;" vertex="1" parent="1">
          <mxGeometry x="590" y="255" width="60" height="80" as="geometry" />
        </mxCell>
        <mxCell id="R5chP_YPjV_zsuHj-nTc-26" value="" style="rounded=0;whiteSpace=wrap;html=1;fillColor=#0050ef;fontColor=#ffffff;strokeColor=#001DBC;" vertex="1" parent="1">
          <mxGeometry x="35" y="450" width="15" height="10" as="geometry" />
        </mxCell>
        <mxCell id="R5chP_YPjV_zsuHj-nTc-28" value="" style="rounded=0;whiteSpace=wrap;html=1;fillColor=#008a00;fontColor=#ffffff;strokeColor=#005700;" vertex="1" parent="1">
          <mxGeometry x="35" y="470" width="15" height="10" as="geometry" />
        </mxCell>
        <mxCell id="R5chP_YPjV_zsuHj-nTc-30" value="&lt;font style=&quot;font-size: 7px;&quot;&gt;Request&lt;/font&gt;" style="text;html=1;align=left;verticalAlign=middle;resizable=0;points=[];autosize=1;strokeColor=none;fillColor=none;" vertex="1" parent="1">
          <mxGeometry x="50" y="440" width="50" height="30" as="geometry" />
        </mxCell>
        <mxCell id="R5chP_YPjV_zsuHj-nTc-31" value="&lt;font style=&quot;font-size: 7px;&quot;&gt;Response&lt;/font&gt;" style="text;html=1;align=left;verticalAlign=middle;resizable=0;points=[];autosize=1;strokeColor=none;fillColor=none;" vertex="1" parent="1">
          <mxGeometry x="50" y="460" width="60" height="30" as="geometry" />
        </mxCell>
      </root>
    </mxGraphModel>
  </diagram>
</mxfile>
